<?xml version="1.0" encoding="UTF-8"?>
<!DOCTYPE svg PUBLIC "-//W3C//DTD SVG 1.1//EN" "http://www.w3.org/Graphics/SVG/1.1/DTD/svg11.dtd">
<!-- Creator: CorelDRAW 2019 (64-Bit) -->
<svg xmlns="http://www.w3.org/2000/svg" xml:space="preserve" width="80.8242mm" height="80.8242mm" version="1.1" style="shape-rendering:geometricPrecision; text-rendering:geometricPrecision; image-rendering:optimizeQuality; fill-rule:evenodd; clip-rule:evenodd"
viewBox="0 0 8081.36 8081.36"
 xmlns:xlink="http://www.w3.org/1999/xlink">
 <defs>
  <style type="text/css">
   <![CDATA[
    .fil0 {fill:#E4AF78}
   ]]>
  </style>
 </defs>
 <g id="Слой_x0020_1">
  <metadata id="CorelCorpID_0Corel-Layer"/>
  <path class="fil0" d="M73.58 4200.16c-8.4,-7.18 -16.23,-15.01 -23.41,-23.41l-0.12 -0.12 0 -0.02c-31.22,-36.61 -50.05,-84.06 -50.05,-135.93 0,-51.87 18.86,-99.33 50.05,-135.93l0 -0.02 0.16 -0.18c7.16,-8.36 14.97,-16.15 23.31,-23.31l1049.24 -1049.22 0 -1483.57c-0.43,-5.51 -0.68,-11.09 -0.68,-16.72 0,-5.62 0.25,-11.19 0.68,-16.71l0 -0.1 0 0c4.02,-50.64 26.07,-96.23 59.68,-130.33l1394.8 1393.73c-374.09,374.36 -605.46,891.36 -605.46,1462.36 0,1142.54 926.37,2068.91 2068.9,2068.91 728.71,0 1369.39,-376.88 1737.96,-946.3l1179.97 762.2 0 737.58 -49.37 -49.39c-7.24,-8.49 -15.13,-16.38 -23.62,-23.62l-604.56 -604.54 -2080.82 -2080.84c-38.44,-45.06 -95.67,-73.66 -159.56,-73.66 -115.77,0 -209.65,93.87 -209.65,209.65 0,63.8 28.52,120.94 73.48,159.4l2081 2081 604.73 604.72c7.13,8.35 14.9,16.12 23.24,23.25l49.56 49.55 -1413.69 0 -1049.14 1049.14c-7.19,8.45 -15.04,16.28 -23.49,23.49l-0.08 0.08 -0.02 0c-36.59,31.2 -84.06,50.05 -135.93,50.05 -51.85,0 -99.3,-18.84 -135.88,-50.01l-0.02 0 -0.13 -0.12c-8.44,-7.21 -16.29,-15.04 -23.49,-23.49l-1049.13 -1049.14 -1483.57 0c-5.52,0.44 -11.09,0.68 -16.73,0.68 -5.62,0 -11.19,-0.24 -16.71,-0.68l-0.1 0 0 0c-102.38,-8.13 -184.03,-89.79 -192.16,-192.16l0 0 0 -0.1c-0.43,-5.52 -0.68,-11.07 -0.68,-16.71 0,-5.63 0.25,-11.21 0.68,-16.72l0 -1483.58 -1049.18 -1049.17zm1325.22 -3077.59l1433.02 -0.86 132.77 -132.77 387.95 1100.22c-261.51,92.23 -498.97,235.43 -700.35,417.85l-1253.4 -1384.43zm1751.18 -319.02l592.39 -592.41 137.65 1766.8c-133.37,10.29 -263.2,33.25 -388.3,67.62l-341.75 -1242.01zm890.7 -803.55c54.97,0 105.01,21.17 142.41,55.79l0.02 0 0.32 0.34c3.76,3.49 7.38,7.12 10.89,10.87l433.26 433.56 -248.5 1498.92c-110.13,-18.14 -223.13,-27.72 -338.41,-27.72l0 -1971.77zm796.02 709.83l412.65 412.93 2.44 0 -417.83 1006.7c-100.36,-41.71 -204.69,-75.73 -312.3,-101.34l315.04 -1318.29zm746.66 412.93l435.78 0 -817.33 1205.46c-62.32,-42.34 -127.09,-81.33 -194.03,-116.76l575.58 -1088.7zm887.63 0l261.92 0c5.51,-0.43 11.09,-0.67 16.73,-0.67 5.61,0 11.19,0.24 16.7,0.67l0.1 0 0 0c68.62,5.46 127.94,43.94 162.04,99.56l-1407.3 1373.48c-49.64,-50.87 -101.87,-99.22 -156.49,-144.76l1106.3 -1328.28zm487.62 603.24l0 440.51 -1177.04 756.01c-37.26,-57.92 -77.37,-113.8 -120.08,-167.56l1297.12 -1028.97zm0 859.88l0 246.15 59.31 59.32 -1046.78 404.1c-23.47,-60.77 -49.76,-120.15 -78.66,-178.01l1066.13 -531.56zm356.81 602.96l259.41 259.42 -1493.56 250.38c-10.08,-60.54 -22.67,-120.24 -37.88,-178.89l1272.03 -330.91zm662.74 662.75l29.62 29.62c8.41,7.18 16.24,15.01 23.41,23.41l0.13 0.12 0 0.02c31.22,36.61 50.04,84.06 50.04,135.93 0,51.87 -18.86,99.33 -50.04,135.93l0 0.02 -0.09 0.08c-1.78,2.09 -3.62,4.18 -5.49,6.19l-1917.61 -68.44c0.89,-24.49 1.46,-49.08 1.46,-73.78 0,-33.29 -0.86,-66.34 -2.42,-99.24l1870.99 -89.86zm-380.73 758.92l-233.46 233.47 -1312 -317.14c12.58,-52.22 23.2,-105.21 31.75,-158.86l1513.71 242.53zm-571.12 571.12l-67.71 67.71 0 158.27 -1044.14 -489.13c21.36,-45.5 41.09,-91.91 59.17,-139.13l1052.68 402.28z"/>
 </g>
</svg>
